{"title":"Two and a Half Men - S09E07 - 720p WEB-DL H.264 {$H@uN}","uid":6791369,"size":190065576,"categoryP":"video","categoryS":"hd___tv_shows","magnet":"?xt=urn:btih:936cbe55b2e94ee2ef6db622b5cab2205a9c6cc9&amp;dn=Two+and+a+Half+Men+-+S09E07+-+720p+WEB-DL+H.264+%7B%24H%40uN%7D&amp;tr=udp%3A%2F%2Ftracker.openbittorrent.com%3A80&amp;tr=udp%3A%2F%2Fopen.demonii.com%3A1337&amp;tr=udp%3A%2F%2Ftracker.coppersurfer.tk%3A6969&amp;tr=udp%3A%2F%2Fexodus.desync.com%3A6969","seeders":1,"leechers":1,"uploader":"ShaunGP","files":-1,"time":1320277533,"description":"&quot;WEB-DL means straight from iTunes where they release &quot;Bluray&quot; quality episodes.\n Such episodes are without any Logo and Caps.&quot;\n\nTwo and a Half Men - S09E07 - Those Fancy Japanese Toilets - 720p WEB-DL H.264 {$H@uN}\n\nGeneral:\n\nComplete name                  : Two and a Half Men - S09E07 - Those Fancy Japanese Toilets - 720p WEB-DL H.264 {$H@uN}.mkv\nOriginal air date              : October 31 2011\nGenre                          : Sitcom\nLanguage                       : English\nEncoder                        : $H@uN\nFile format                    : Matroska\nFile size                      : 181 MiB\nDuration                       : 19mn 28s\nOverall bit rate               : 1 301 Kbps\n\n\nVideo:\n\nFormat                         : AVC\nDuration                       : 19mn 28s\nBit rate                       : 1 200 Kbps\nWidth                          : 1 280 pixels\nHeight                         : 720 pixels\nDisplay aspect ratio           : 16:9\nFrame rate mode                : Variable\nFrame rate                     : 23.976 fps\nColor space                    : YUV\nChroma subsampling             : 4:2:0\nBit depth                      : 8 bits\nScan type                      : Progressive\nBits/(Pixel*Frame)             : 0.054\nStream size                    : 164 MiB (91%)\nWriting library                : x264 core 112\nLanguage                       : English\nSubtitles                      : Seperate .srt file included\n\n\nAudio:\n\nFormat                         : AC-3\nMode extension                 : CM (complete main)\nCodec ID                       : A_AC3\nDuration                       : 19mn 28s\nBit rate mode                  : Constant\nBit rate                       : 96 Kbps\nChannel(s)                     : 2 channels\nChannel positions              : Front: L R\nSampling rate                  : 48.0 KHz\nBit depth                      : 16 bits\nCompression mode               : Lossy\nStream size                    : 13.4 MiB (7%)\nLanguage                       : English\n\nScreen Shots:\n &lt;a href=&quot;\nhttp://i1140.photobucket.com/albums/n566/ShaunGP/ScreenShots1/TwoandaHalfMen-S09E07-ThoseFancyJapaneseToilets-720pWEB-DLH264HuNmkv_snapshot_0210_20111103_035447.jpg&quot; rel=&quot;nofollow&quot; target=&quot;_NEW&quot;&gt;\nhttp://i1140.photobucket.com/albums/n566/ShaunGP/ScreenShots1/TwoandaHalfMen-S09E07-ThoseFancyJapaneseToilets-720pWEB-DLH264HuNmkv_snapshot_0210_20111103_035447.jpg&lt;/a&gt;\n &lt;a href=&quot;\nhttp://i1140.photobucket.com/albums/n566/ShaunGP/ScreenShots1/TwoandaHalfMen-S09E07-ThoseFancyJapaneseToilets-720pWEB-DLH264HuNmkv_snapshot_1154_20111103_035619.jpg&quot; rel=&quot;nofollow&quot; target=&quot;_NEW&quot;&gt;\nhttp://i1140.photobucket.com/albums/n566/ShaunGP/ScreenShots1/TwoandaHalfMen-S09E07-ThoseFancyJapaneseToilets-720pWEB-DLH264HuNmkv_snapshot_1154_20111103_035619.jpg&lt;/a&gt;\n &lt;a href=&quot;\nhttp://i1140.photobucket.com/albums/n566/ShaunGP/ScreenShots1/TwoandaHalfMen-S09E07-ThoseFancyJapaneseToilets-720pWEB-DLH264HuNmkv_snapshot_1345_20111103_035641.jpg&quot; rel=&quot;nofollow&quot; target=&quot;_NEW&quot;&gt;\nhttp://i1140.photobucket.com/albums/n566/ShaunGP/ScreenShots1/TwoandaHalfMen-S09E07-ThoseFancyJapaneseToilets-720pWEB-DLH264HuNmkv_snapshot_1345_20111103_035641.jpg&lt;/a&gt;\n\n\nEncoder's Notes:\n\nDo Provide Feedback.\nKeep in Mind, you are charged nothing for Downloading a TORRENT,\nso its your duty to SEED n keep the torrent alive for as long as possible.\nEnjoy..!!! Keep Seeding till 1:1 ratio...","torrent":{"xt":"urn:btih:936cbe55b2e94ee2ef6db622b5cab2205a9c6cc9","amp;dn":"Two+and+a+Half+Men+-+S09E07+-+720p+WEB-DL+H.264+%7B%24H%40uN%7D","amp;tr":["udp%3A%2F%2Ftracker.openbittorrent.com%3A80","udp%3A%2F%2Fopen.demonii.com%3A1337","udp%3A%2F%2Ftracker.coppersurfer.tk%3A6969","udp%3A%2F%2Fexodus.desync.com%3A6969"],"infoHash":"936cbe55b2e94ee2ef6db622b5cab2205a9c6cc9","infoHashBuffer":{"type":"Buffer","data":[147,108,190,85,178,233,78,226,239,109,182,34,181,202,178,32,90,156,108,201]},"announce":[],"urlList":[]}}